<mxfile host="app.diagrams.net" agent="Mozilla/5.0 (Windows NT 10.0; Win64; x64) AppleWebKit/537.36 (KHTML, like Gecko) Chrome/133.0.0.0 Safari/537.36" version="26.0.15">
  <diagram name="Page-1" id="NRt5C5DDL8hJg8hsUaBB">
    <mxGraphModel dx="724" dy="360" grid="0" gridSize="10" guides="1" tooltips="1" connect="1" arrows="1" fold="1" page="1" pageScale="1" pageWidth="850" pageHeight="1100" math="0" shadow="0">
      <root>
        <mxCell id="0" />
        <mxCell id="1" parent="0" />
        <mxCell id="3IExR_RMvdUXtYrUq09C-1" value="" style="rounded=1;whiteSpace=wrap;html=1;" vertex="1" parent="1">
          <mxGeometry x="520" y="120" width="200" height="80" as="geometry" />
        </mxCell>
        <mxCell id="3IExR_RMvdUXtYrUq09C-2" value="" style="rounded=1;whiteSpace=wrap;html=1;" vertex="1" parent="1">
          <mxGeometry x="120" y="120" width="200" height="80" as="geometry" />
        </mxCell>
        <mxCell id="3IExR_RMvdUXtYrUq09C-3" value="" style="rounded=1;whiteSpace=wrap;html=1;" vertex="1" parent="1">
          <mxGeometry x="120" y="320" width="200" height="80" as="geometry" />
        </mxCell>
        <mxCell id="3IExR_RMvdUXtYrUq09C-4" value="" style="rounded=1;whiteSpace=wrap;html=1;" vertex="1" parent="1">
          <mxGeometry x="520" y="320" width="200" height="80" as="geometry" />
        </mxCell>
        <mxCell id="3IExR_RMvdUXtYrUq09C-5" value="&lt;font style=&quot;color: rgb(255, 51, 51);&quot;&gt;&lt;b&gt;USD 1&lt;/b&gt;&lt;/font&gt;" style="text;html=1;align=center;verticalAlign=middle;whiteSpace=wrap;rounded=0;" vertex="1" parent="1">
          <mxGeometry x="560" y="145" width="120" height="30" as="geometry" />
        </mxCell>
        <mxCell id="3IExR_RMvdUXtYrUq09C-6" value="&lt;b&gt;&lt;i&gt;P( 0, t )&lt;sup&gt;USD&lt;/sup&gt;&lt;/i&gt;&lt;/b&gt;" style="text;html=1;align=center;verticalAlign=middle;whiteSpace=wrap;rounded=0;" vertex="1" parent="1">
          <mxGeometry x="160" y="145" width="120" height="30" as="geometry" />
        </mxCell>
        <mxCell id="3IExR_RMvdUXtYrUq09C-7" value="&lt;b&gt;&lt;i&gt;S . P( 0, t )&lt;sup&gt;USD&lt;/sup&gt;&lt;/i&gt;&lt;/b&gt;" style="text;html=1;align=center;verticalAlign=middle;whiteSpace=wrap;rounded=0;" vertex="1" parent="1">
          <mxGeometry x="160" y="345" width="120" height="30" as="geometry" />
        </mxCell>
        <mxCell id="3IExR_RMvdUXtYrUq09C-8" value="&lt;b&gt;&lt;i&gt;S . P( 0, t )&lt;sup&gt;USD&amp;nbsp;&lt;/sup&gt;/&amp;nbsp; P( 0, t )&lt;sup&gt;BRL&amp;nbsp;&lt;/sup&gt;&lt;/i&gt;&lt;/b&gt;" style="text;html=1;align=center;verticalAlign=middle;whiteSpace=wrap;rounded=0;" vertex="1" parent="1">
          <mxGeometry x="520" y="345" width="200" height="30" as="geometry" />
        </mxCell>
        <mxCell id="3IExR_RMvdUXtYrUq09C-10" value="" style="endArrow=classic;html=1;rounded=0;entryX=1;entryY=0.5;entryDx=0;entryDy=0;exitX=0;exitY=0.5;exitDx=0;exitDy=0;strokeWidth=1;" edge="1" parent="1" source="3IExR_RMvdUXtYrUq09C-1" target="3IExR_RMvdUXtYrUq09C-2">
          <mxGeometry width="50" height="50" relative="1" as="geometry">
            <mxPoint x="400" y="300" as="sourcePoint" />
            <mxPoint x="450" y="250" as="targetPoint" />
          </mxGeometry>
        </mxCell>
        <mxCell id="3IExR_RMvdUXtYrUq09C-11" value="" style="endArrow=classic;html=1;rounded=0;entryX=0.5;entryY=0;entryDx=0;entryDy=0;exitX=0.5;exitY=1;exitDx=0;exitDy=0;strokeWidth=1;" edge="1" parent="1" source="3IExR_RMvdUXtYrUq09C-2" target="3IExR_RMvdUXtYrUq09C-3">
          <mxGeometry width="50" height="50" relative="1" as="geometry">
            <mxPoint x="400" y="300" as="sourcePoint" />
            <mxPoint x="450" y="250" as="targetPoint" />
          </mxGeometry>
        </mxCell>
        <mxCell id="3IExR_RMvdUXtYrUq09C-12" value="" style="endArrow=classic;html=1;rounded=0;entryX=0;entryY=0.5;entryDx=0;entryDy=0;exitX=1;exitY=0.5;exitDx=0;exitDy=0;strokeWidth=1;" edge="1" parent="1" source="3IExR_RMvdUXtYrUq09C-3" target="3IExR_RMvdUXtYrUq09C-4">
          <mxGeometry width="50" height="50" relative="1" as="geometry">
            <mxPoint x="400" y="300" as="sourcePoint" />
            <mxPoint x="450" y="250" as="targetPoint" />
          </mxGeometry>
        </mxCell>
        <mxCell id="3IExR_RMvdUXtYrUq09C-13" value="" style="endArrow=classic;html=1;rounded=0;entryX=0.5;entryY=1;entryDx=0;entryDy=0;exitX=0.5;exitY=0;exitDx=0;exitDy=0;strokeColor=#FF3333;strokeWidth=1;" edge="1" parent="1" source="3IExR_RMvdUXtYrUq09C-4" target="3IExR_RMvdUXtYrUq09C-1">
          <mxGeometry width="50" height="50" relative="1" as="geometry">
            <mxPoint x="330" y="370" as="sourcePoint" />
            <mxPoint x="530" y="370" as="targetPoint" />
          </mxGeometry>
        </mxCell>
        <mxCell id="3IExR_RMvdUXtYrUq09C-14" value="&lt;font style=&quot;color: rgb(0, 0, 255);&quot;&gt;1) Borrow USD&lt;/font&gt;" style="text;html=1;align=center;verticalAlign=middle;whiteSpace=wrap;rounded=0;" vertex="1" parent="1">
          <mxGeometry x="360" y="129" width="120" height="30" as="geometry" />
        </mxCell>
        <mxCell id="3IExR_RMvdUXtYrUq09C-15" value="&lt;font style=&quot;color: rgb(0, 0, 255);&quot;&gt;3) Deposit BRL&lt;/font&gt;" style="text;html=1;align=center;verticalAlign=middle;whiteSpace=wrap;rounded=0;" vertex="1" parent="1">
          <mxGeometry x="360" y="328" width="120" height="30" as="geometry" />
        </mxCell>
        <mxCell id="3IExR_RMvdUXtYrUq09C-16" value="&lt;font style=&quot;color: rgb(0, 0, 255);&quot;&gt;2) Spot FX, S(USD/BRL)&lt;/font&gt;" style="text;html=1;align=center;verticalAlign=middle;whiteSpace=wrap;rounded=0;" vertex="1" parent="1">
          <mxGeometry x="225" y="240" width="140" height="30" as="geometry" />
        </mxCell>
        <mxCell id="3IExR_RMvdUXtYrUq09C-18" value="&lt;font style=&quot;color: rgb(255, 0, 0);&quot;&gt;4) Fwd FX, F(USD/BRL)&lt;/font&gt;" style="text;html=1;align=center;verticalAlign=middle;whiteSpace=wrap;rounded=0;" vertex="1" parent="1">
          <mxGeometry x="624" y="242" width="140" height="30" as="geometry" />
        </mxCell>
      </root>
    </mxGraphModel>
  </diagram>
</mxfile>
